<?xml version="1.0" standalone="no"?>
<!DOCTYPE svg PUBLIC "-//W3C//DTD SVG 20010904//EN"
 "http://www.w3.org/TR/2001/REC-SVG-20010904/DTD/svg10.dtd">
<svg version="1.0" xmlns="http://www.w3.org/2000/svg"
 width="2000.000000pt" height="841.000000pt" viewBox="0 0 2000.000000 841.000000"
 preserveAspectRatio="xMidYMid meet">

<g transform="translate(0.000000,841.000000) scale(0.100000,-0.100000)"
fill="#000000" stroke="none">
<path d="M15369 8186 c-4 -5 -27 -8 -116 -15 -7 -1 -27 -14 -45 -30 -18 -16
-60 -37 -93 -47 -33 -10 -67 -23 -75 -29 -32 -23 -92 -45 -125 -45 -26 0 -39
-6 -51 -24 -8 -14 -27 -26 -42 -28 -20 -2 -40 -21 -75 -68 -26 -36 -72 -90
-101 -120 -68 -70 -156 -209 -156 -246 0 -7 -6 -19 -13 -26 -17 -16 -25 -50
-37 -144 -6 -40 -14 -84 -20 -99 -5 -14 -10 -43 -10 -65 0 -21 -6 -49 -14 -64
-13 -26 -81 -86 -97 -86 -5 0 -9 -6 -9 -14 0 -7 -7 -19 -16 -27 -13 -10 -17
-10 -24 0 -14 24 -30 0 -30 -47 -1 -31 -7 -55 -19 -69 -23 -27 -25 -28 -45 -7
-19 18 -36 11 -36 -16 0 -30 -11 -49 -25 -43 -17 6 -28 -31 -23 -73 2 -23 9
-30 33 -34 26 -4 30 -10 33 -39 2 -19 10 -45 19 -57 17 -27 10 -74 -11 -74
-22 0 -27 -29 -11 -54 18 -27 10 -56 -14 -56 -38 -1 -70 -57 -41 -75 15 -9 12
-75 -3 -75 -24 0 -79 -66 -75 -91 1 -12 8 -24 15 -26 7 -3 9 3 6 16 -7 27 9
46 65 73 25 13 52 34 61 48 11 17 23 24 39 22 32 -5 23 -23 -24 -48 -21 -11
-40 -29 -42 -40 -8 -52 -13 -61 -47 -74 -37 -14 -46 -34 -20 -44 21 -8 19 -28
-5 -49 -24 -20 -26 -47 -5 -47 8 0 15 -7 15 -15 0 -8 -5 -15 -11 -15 -20 0 -4
-89 20 -114 20 -21 20 -24 5 -37 -11 -9 -14 -23 -10 -47 3 -18 0 -45 -5 -60
-14 -37 -3 -89 21 -97 15 -5 20 -15 20 -39 0 -17 5 -37 11 -43 8 -8 8 -17 0
-31 -15 -28 -14 -29 10 -35 34 -9 11 -29 -30 -25 -31 3 -36 0 -39 -21 -6 -37
10 -41 63 -16 38 19 52 22 63 12 20 -16 39 13 48 69 3 25 12 44 19 44 7 0 18
14 25 30 15 36 37 39 49 8 12 -33 3 -49 -27 -46 -20 2 -27 -3 -33 -24 -10 -38
3 -42 52 -18 43 22 55 21 46 -5 -4 -9 -19 -15 -37 -15 -34 0 -40 -15 -10 -25
23 -7 26 -21 6 -28 -24 -9 -30 -65 -10 -88 9 -10 23 -19 31 -19 8 0 13 -12 13
-30 0 -41 27 -51 52 -20 11 14 16 30 12 39 -14 33 -16 72 -4 86 21 25 40 18
40 -15 0 -43 38 -137 62 -154 34 -24 34 -119 1 -170 -15 -24 -23 -46 -19 -59
3 -12 -1 -29 -10 -39 -15 -15 -14 -20 5 -47 25 -35 25 -39 5 -79 -8 -18 -13
-36 -10 -41 4 -5 1 -22 -4 -37 -9 -23 -7 -30 17 -55 33 -34 57 -36 101 -9 37
23 42 40 10 40 -29 0 -92 64 -84 85 3 8 26 29 51 47 25 18 45 40 45 50 0 25
25 33 57 19 23 -10 25 -16 21 -64 -4 -65 15 -72 71 -28 49 39 59 39 53 0 -4
-30 -4 -31 26 -24 l32 6 -56 -87 c-30 -49 -57 -100 -61 -114 -3 -14 -9 -29
-13 -35 -4 -5 -15 -32 -25 -60 -9 -27 -28 -79 -40 -115 -50 -141 -93 -287 -99
-335 -7 -48 -26 -153 -46 -245 -5 -25 -14 -92 -20 -150 -6 -58 -14 -136 -19
-175 -18 -140 -42 -333 -56 -450 -7 -66 -23 -189 -34 -272 -11 -84 -23 -206
-27 -270 l-6 -118 25 25 c15 14 52 62 84 106 67 95 235 321 258 346 8 10 15
21 15 24 0 3 13 17 30 30 31 26 78 91 106 147 9 18 21 35 26 38 7 4 6 14 0 26
-8 14 -8 23 0 31 9 9 6 18 -10 35 -26 27 -28 37 -7 37 8 0 15 -4 15 -10 0 -21
31 -9 40 15 7 19 17 25 40 25 23 0 33 6 42 25 12 27 28 24 28 -6 0 -10 7 -19
15 -19 14 0 20 12 16 33 -1 5 3 6 8 3 14 -9 41 4 41 20 0 8 6 14 14 14 8 0 21
6 28 13 7 7 41 34 75 60 34 26 68 53 75 60 8 6 43 32 78 56 103 70 279 211
334 266 28 28 114 107 191 175 260 230 340 304 508 471 185 186 199 209 122
209 -53 0 -82 14 -180 82 l-70 49 -9 -28 c-5 -15 -18 -43 -28 -61 -29 -51 -22
-95 8 -54 12 15 13 15 14 -9 0 -15 7 -32 15 -39 8 -7 15 -24 15 -37 0 -15 5
-23 13 -20 6 2 11 12 11 21 -2 19 19 21 35 3 8 -11 6 -20 -9 -37 -11 -13 -20
-26 -20 -29 0 -3 -16 -23 -35 -45 -19 -21 -35 -42 -35 -47 0 -5 -6 -9 -13 -9
-7 0 -47 -29 -88 -65 -99 -88 -98 -87 -109 -80 -5 3 -27 -6 -49 -21 -28 -18
-48 -24 -65 -20 -15 4 -28 0 -36 -9 -14 -17 -46 -20 -55 -5 -5 8 -11 7 -21 -1
-11 -9 -17 -9 -28 0 -10 9 -15 8 -20 -4 -8 -23 -26 -18 -26 8 1 31 22 66 50
80 13 7 28 20 34 30 9 15 7 22 -11 34 -13 9 -23 22 -23 29 0 21 -12 17 -44
-16 -27 -28 -28 -30 -8 -30 11 0 26 8 31 18 9 14 10 11 11 -16 0 -36 -21 -52
-45 -32 -11 9 -17 6 -29 -19 -10 -17 -13 -41 -10 -58 4 -20 1 -33 -10 -42 -14
-12 -16 -11 -16 7 0 11 -7 25 -15 32 -20 17 -19 57 3 70 14 9 13 10 -8 5 -14
-4 -31 -15 -39 -26 -7 -10 -20 -19 -28 -19 -7 0 -16 -8 -20 -17 -3 -10 -12
-25 -19 -33 -19 -23 -21 -55 -5 -74 12 -14 13 -21 2 -38 -15 -24 -10 -31 13
-22 10 4 15 13 12 21 -3 8 5 31 19 51 22 33 23 37 9 53 -9 10 -13 23 -9 28 11
19 25 12 25 -13 0 -15 7 -26 20 -29 l21 -5 -20 -38 c-24 -45 -20 -55 19 -47
22 4 31 1 36 -11 3 -9 14 -16 25 -16 10 0 22 -7 27 -16 10 -19 32 -11 32 12 0
10 6 8 21 -7 17 -17 20 -28 14 -57 -9 -49 -22 -63 -51 -56 -16 4 -26 1 -30 -9
-6 -16 -48 -35 -97 -44 -16 -2 -49 -13 -74 -24 -83 -35 -152 -27 -153 18 0 12
70 83 83 83 4 0 7 8 7 17 0 13 -7 10 -30 -12 -23 -22 -33 -26 -42 -17 -9 9 -9
15 0 24 7 7 12 22 12 34 0 13 5 26 10 29 15 9 12 35 -3 35 -16 0 -51 -37 -61
-64 -4 -12 0 -26 10 -37 10 -11 13 -25 9 -39 -9 -27 -39 -22 -43 8 -4 25 -41
51 -43 30 -3 -26 3 -43 22 -66 25 -33 24 -54 -4 -81 -44 -40 -69 -5 -30 41 16
18 10 38 -11 38 -17 0 -56 -43 -56 -62 0 -9 5 -18 12 -20 7 -3 9 -14 4 -32 -7
-30 -29 -30 -35 0 -2 10 -9 23 -17 27 -8 4 -14 15 -14 23 0 18 -39 10 -56 -12
-6 -8 -18 -14 -25 -14 -8 0 -25 -13 -39 -30 -29 -35 -38 -37 -57 -12 -12 15
-13 14 -12 -18 2 -54 0 -57 -19 -33 -11 15 -21 20 -31 14 -11 -7 -11 -20 -4
-64 11 -61 -9 -147 -33 -147 -19 0 -17 24 5 66 24 43 15 87 -17 92 -25 4 -26
6 -11 30 9 15 8 25 -7 47 -18 28 -19 28 -22 7 -4 -23 -26 -30 -37 -12 -4 6 -2
17 4 24 7 9 7 16 -1 24 -13 13 3 38 33 47 29 9 23 28 -6 21 -32 -8 -32 9 -1
48 21 25 28 28 59 22 19 -4 38 -13 41 -21 7 -19 35 -19 42 -1 3 8 0 24 -6 35
-9 18 -8 22 7 28 10 4 27 15 38 26 11 10 28 16 37 13 13 -3 18 2 18 15 0 12 7
19 20 19 25 0 70 21 92 43 10 9 22 17 28 17 6 0 10 6 10 14 0 19 20 25 50 14
18 -7 27 -5 36 6 8 12 20 14 43 10 32 -7 39 -22 19 -42 -9 -9 -9 -15 1 -24 10
-11 15 -10 25 5 18 23 43 22 51 -3 8 -26 32 -26 40 2 6 16 1 26 -16 39 l-24
18 24 25 24 25 -24 21 c-29 24 -65 20 -146 -15 -52 -23 -57 -24 -124 -11 -52
10 -78 20 -99 41 l-29 28 -11 -27 c-5 -15 -10 -31 -10 -36 0 -13 -34 -30 -59
-30 -28 0 -41 28 -34 76 4 31 0 44 -18 63 -22 23 -51 25 -104 5 -16 -6 -18 -5
-7 7 6 7 12 24 12 36 0 13 6 36 14 51 7 15 18 54 24 87 13 72 14 283 1 291 -5
3 -9 17 -9 31 0 21 3 23 14 14 9 -8 16 -8 20 -2 7 11 -10 189 -24 241 -5 19
-16 78 -25 130 -38 227 -31 205 -93 270 -31 32 -66 76 -77 97 -11 21 -29 54
-41 73 -12 20 -29 69 -38 110 -9 41 -21 94 -26 118 -6 23 -10 51 -10 62 0 11
-9 25 -19 32 -15 9 -18 19 -14 45 6 34 -14 123 -27 123 -4 0 -12 -11 -18 -25
-6 -14 -16 -25 -21 -25 -17 0 -33 40 -27 66 4 14 0 33 -8 47 -20 30 -36 223
-20 244 15 21 32 9 42 -29 13 -52 27 -42 42 29 13 63 15 103 11 271 -2 84 16
180 40 211 13 16 18 33 14 48 -3 14 1 33 10 46 8 12 15 36 15 53 0 18 11 55
25 82 14 28 25 57 25 65 0 9 4 18 9 22 5 3 12 19 16 36 4 16 17 39 28 50 30
28 102 60 120 53 15 -5 47 20 47 38 0 7 17 9 48 5 32 -4 53 -1 66 9 11 8 32
14 46 14 14 0 31 5 38 12 9 9 16 7 31 -6 22 -20 51 -15 51 8 0 25 31 36 56 19
21 -13 24 -13 34 6 11 22 98 71 124 71 8 0 21 6 28 13 29 30 61 38 155 39 l98
1 76 -46 c42 -26 91 -50 110 -53 33 -7 99 -62 99 -83 0 -6 15 -17 33 -24 45
-19 87 -76 112 -152 5 -16 8 -17 16 -5 7 11 8 7 3 -12 -5 -22 -3 -28 10 -28 9
0 16 -8 16 -19 0 -10 7 -24 15 -31 8 -7 15 -25 15 -40 0 -15 11 -44 25 -64 14
-20 25 -42 25 -48 0 -7 10 -22 21 -34 29 -31 40 -98 39 -227 -1 -98 6 -140 31
-202 4 -11 9 -28 11 -38 6 -34 23 -22 34 23 9 33 28 61 74 109 34 36 69 75 77
87 8 13 23 22 34 21 18 -1 28 -17 12 -17 -5 0 -6 -48 -5 -107 3 -62 -1 -131
-8 -163 -17 -73 -66 -225 -91 -277 -19 -39 -19 -43 -4 -67 20 -31 14 -56 -14
-56 -21 0 -36 31 -29 60 2 9 -6 16 -19 18 -17 2 -24 -3 -29 -22 -3 -14 -4 -32
-1 -40 8 -21 -15 -44 -48 -48 l-30 -3 -16 -120 c-21 -157 -61 -271 -117 -337
-16 -20 -41 -235 -42 -363 0 -58 4 -87 16 -103 9 -13 18 -38 20 -55 5 -56 16
-102 26 -114 6 -8 8 -39 3 -78 -6 -58 -11 -71 -46 -108 -21 -23 -39 -51 -39
-63 0 -11 -11 -31 -25 -44 -27 -26 -32 -63 -13 -105 6 -14 17 -25 25 -25 19 0
16 50 -4 65 -10 8 -14 19 -10 30 6 14 10 15 22 5 8 -7 15 -18 15 -25 0 -11 20
-25 36 -25 12 0 2 59 -12 64 -24 9 -15 61 11 61 16 0 20 -6 18 -27 -2 -30 12
-35 40 -14 24 18 22 57 -3 63 -20 5 -29 33 -10 33 6 0 10 -4 10 -10 0 -13 27
-13 35 0 3 5 0 18 -7 29 -16 26 -1 42 17 17 14 -18 35 -14 35 6 0 7 -10 22
-21 34 -21 22 -21 24 -5 64 15 38 15 44 0 76 -16 34 -16 36 5 50 25 18 28 60
5 92 -14 21 -14 25 6 57 12 19 25 35 30 35 15 0 23 -21 11 -33 -13 -13 -15
-57 -3 -57 5 0 17 9 27 20 25 28 37 25 33 -7 -3 -26 0 -28 30 -26 18 0 36 4
39 7 10 9 -30 76 -45 76 -18 0 -92 62 -92 77 0 21 40 51 61 46 22 -6 59 22 59
44 0 8 -12 13 -30 13 -25 0 -30 4 -30 24 0 23 16 36 44 36 7 0 22 -17 34 -39
19 -33 26 -38 49 -34 l28 5 -22 -16 c-19 -14 -21 -21 -12 -43 5 -15 16 -31 24
-37 7 -6 15 -24 17 -40 2 -16 9 -31 16 -34 7 -2 10 2 6 11 -3 9 8 28 26 47 29
30 30 33 25 98 -9 93 -14 114 -33 128 -9 7 -14 16 -10 20 4 4 14 2 21 -5 11
-8 18 -7 31 8 10 10 16 25 15 33 -2 7 3 30 10 51 10 30 10 41 0 53 -6 8 -10
15 -8 17 2 1 13 7 23 13 28 15 31 34 7 41 -22 6 -27 18 -11 28 17 10 11 32
-10 38 -11 3 -25 17 -31 31 -11 24 -9 29 49 86 34 33 68 60 76 60 16 0 86 77
86 95 0 6 -18 24 -40 41 -38 27 -50 59 -23 59 20 0 43 41 41 71 -2 15 3 29 9
31 21 7 63 52 73 78 6 15 10 46 10 70 0 24 5 47 10 50 11 7 14 48 3 58 -3 4
-17 0 -31 -9 -20 -13 -26 -14 -33 -3 -4 7 -2 21 4 32 34 56 35 60 24 78 -9 14
-9 21 1 31 9 9 12 7 12 -10 0 -12 5 -22 11 -22 15 0 6 42 -11 50 -8 4 -25 12
-38 19 -12 6 -33 9 -46 5 -32 -8 -37 4 -27 67 10 63 3 82 -40 101 -28 12 -30
16 -25 51 6 33 2 42 -35 81 -22 25 -50 46 -62 48 -16 2 -25 13 -31 41 -5 20
-13 37 -18 37 -17 0 -35 69 -41 155 -4 50 -11 104 -15 120 -5 17 -18 64 -27
105 -10 41 -27 91 -38 110 -11 19 -28 51 -39 71 -10 20 -50 70 -89 110 -39 41
-83 91 -97 112 -27 41 -149 147 -168 147 -17 0 -106 40 -124 55 -22 19 -100
45 -136 45 -18 0 -51 14 -80 33 -42 27 -61 33 -134 39 -47 3 -110 9 -140 13
-30 4 -58 4 -61 1z m-1190 -1411 c13 -12 8 -14 -32 -13 -44 0 -59 13 -40 32
10 10 55 -2 72 -19z m-9 -404 c0 -14 -18 -23 -30 -16 -6 4 -8 11 -5 16 8 12
35 12 35 0z m358 -349 c3 -16 -2 -22 -17 -22 -24 0 -35 15 -27 36 9 23 40 13
44 -14z m110 -993 c-4 -28 -33 -37 -42 -13 -8 20 23 59 37 45 5 -5 7 -19 5
-32z m-68 -9 c0 -5 -5 -10 -11 -10 -5 0 -7 5 -4 10 3 6 8 10 11 10 2 0 4 -4 4
-10z m311 -303 c-8 -8 -11 -5 -11 9 0 27 14 41 18 19 2 -9 -1 -22 -7 -28z m6
-33 c8 -21 -14 -67 -30 -61 -6 2 -16 16 -22 31 -7 21 -6 29 5 36 22 14 40 12
47 -6z m-40 -104 c2 -8 -2 -22 -7 -30 -9 -13 -11 -13 -20 0 -16 25 -12 52 7
48 10 -2 19 -10 20 -18z m47 -46 c10 -25 7 -33 -15 -44 -15 -9 -24 -8 -35 1
-11 9 -14 8 -14 -4 0 -25 -22 -32 -37 -12 -21 30 -15 41 24 42 22 1 40 7 45
17 11 20 24 20 32 0z m-44 -128 c0 -20 -13 -27 -30 -16 -9 5 -19 5 -27 -2 -10
-8 -13 -5 -13 11 0 17 6 21 35 21 24 0 35 -5 35 -14z m10 -54 c0 -10 -11 -34
-25 -52 -19 -26 -24 -42 -19 -63 4 -22 0 -35 -16 -52 -13 -14 -20 -31 -17 -39
4 -9 -1 -19 -10 -25 -15 -8 -15 -11 0 -35 13 -20 15 -31 7 -45 -15 -28 -12
-84 5 -107 19 -25 19 -39 -1 -58 -10 -11 -13 -23 -8 -38 4 -13 7 -33 5 -45 -1
-13 2 -23 7 -23 6 0 10 -41 9 -104 -2 -73 2 -111 13 -130 16 -31 7 -54 -27
-71 -22 -12 -19 -35 5 -35 8 0 24 7 34 17 10 9 18 11 18 5 0 -6 -15 -20 -33
-31 -29 -18 -33 -25 -29 -52 3 -20 13 -34 28 -41 28 -13 22 -28 -10 -28 -22 0
-23 -3 -21 -62 2 -41 -2 -73 -12 -92 -11 -20 -12 -31 -4 -39 17 -17 13 -27 -9
-27 -25 0 -27 -34 -6 -85 9 -21 11 -37 5 -40 -12 -8 -29 3 -29 19 0 8 -13 16
-28 19 -18 4 -33 16 -40 33 -12 25 -11 26 9 21 l21 -6 -21 23 c-22 23 -28 61
-11 71 6 3 10 15 10 26 0 11 11 35 25 53 34 45 34 83 -2 145 -2 2 -9 -2 -17
-8 -20 -16 -46 22 -46 67 0 32 34 92 53 92 12 0 37 -26 37 -39 0 -6 7 -11 15
-11 8 0 15 5 15 10 0 6 -7 13 -15 16 -23 9 -18 40 10 52 32 15 34 49 3 54 -24
3 -28 25 -13 61 6 13 4 16 -9 11 -18 -7 -49 13 -40 27 3 5 23 9 45 9 35 0 39
2 39 26 0 27 -6 28 -52 9 -11 -4 -18 -3 -18 5 0 6 -6 18 -14 25 -7 8 -11 25
-9 39 4 21 8 23 23 14 21 -13 53 -3 47 15 -2 7 -15 11 -30 9 -16 -2 -27 1 -27
8 0 8 -11 10 -34 6 -39 -7 -69 15 -47 37 9 9 14 9 20 -2 5 -8 11 -9 15 -3 7
12 -3 42 -14 42 -12 0 -23 38 -15 50 4 6 15 0 27 -15 10 -14 28 -25 38 -25 10
0 28 -14 40 -30 25 -34 40 -32 33 5 -5 25 -50 55 -83 55 -25 0 -47 47 -32 68
7 9 15 25 18 35 4 9 13 17 20 17 8 0 14 9 14 19 0 26 17 36 36 20 28 -23 29 3
1 27 -33 28 -27 48 13 39 36 -8 49 12 21 31 -24 17 -29 49 -6 40 8 -3 21 2 27
10 7 8 21 23 31 32 9 9 17 21 17 27 0 13 20 35 32 35 4 0 8 -8 8 -18z m-87
-17 c8 -19 -13 -31 -23 -14 -9 14 -4 29 10 29 4 0 10 -7 13 -15z m204 -134
c-5 -22 0 -34 18 -51 l24 -23 -37 -33 c-20 -18 -37 -41 -37 -51 0 -14 -7 -17
-29 -15 -16 2 -36 -4 -46 -13 -16 -15 -19 -15 -34 0 -9 9 -16 23 -16 31 0 8
-4 12 -10 9 -14 -9 -12 1 6 37 9 16 13 40 10 53 -4 15 2 31 17 48 22 26 45 33
106 36 32 1 33 0 28 -28z m-127 -311 c0 -11 -4 -20 -10 -20 -5 0 -10 9 -10 20
0 11 5 20 10 20 6 0 10 -9 10 -20z m378 -126 c12 -20 22 -40 22 -45 0 -18 -64
-70 -81 -66 -10 3 -20 -1 -23 -9 -6 -17 -26 -19 -26 -3 0 7 -11 22 -25 35 -29
27 -32 42 -7 51 24 10 42 29 42 47 0 13 16 19 65 24 6 1 20 -15 33 -34z m-153
-117 c15 -29 16 -39 6 -70 -15 -43 -69 -93 -84 -78 -7 7 -4 16 10 28 28 25 47
83 27 83 -17 0 -18 11 -2 45 15 33 21 32 43 -8z m-381 -63 c26 -10 13 -64 -16
-64 -13 0 -28 38 -22 54 7 17 14 19 38 10z m217 -16 c2 -24 -3 -41 -16 -54
-19 -20 -24 -7 -12 32 10 34 26 46 28 22z m-17 -108 c21 -8 26 -16 26 -44 0
-42 -8 -66 -23 -66 -6 0 -19 -7 -29 -17 -29 -26 -32 -7 -4 30 31 41 31 41 5
78 -22 31 -16 35 25 19z m-121 -418 c-6 -25 -33 -30 -33 -7 0 8 7 15 15 15 8
0 15 5 15 12 0 6 2 9 5 7 2 -3 2 -15 -2 -27z"/>
<path d="M14687 4042 c-15 -30 -15 -31 9 -20 26 12 28 16 15 37 -6 10 -12 6
-24 -17z"/>
<path d="M14768 3513 c7 -3 16 -2 19 1 4 3 -2 6 -13 5 -11 0 -14 -3 -6 -6z"/>
<path d="M14690 3440 c0 -20 37 -52 45 -40 4 6 -1 20 -11 31 -19 21 -34 25
-34 9z"/>
<path d="M15140 3724 c-13 -34 -13 -41 5 -48 22 -8 39 1 52 31 15 32 9 43 -23
43 -17 0 -27 -8 -34 -26z"/>
<path d="M15908 6909 c-2 -7 -36 -13 -78 -16 -41 -2 -118 -13 -170 -24 -75
-15 -100 -24 -117 -45 -46 -51 -21 -83 48 -62 48 14 59 5 31 -25 -21 -22 -30
-76 -15 -90 11 -12 14 -75 3 -82 -17 -11 -11 -22 34 -58 34 -29 57 -38 111
-47 75 -12 109 0 54 19 -18 6 -30 13 -28 16 3 2 45 11 94 19 102 16 179 46
194 73 14 27 -18 91 -60 124 -46 35 -70 47 -148 74 -50 18 -61 25 -46 30 11 3
43 15 71 26 l51 20 74 -30 c41 -16 75 -25 77 -20 4 10 -57 65 -100 92 -32 19
-74 23 -80 6z m-223 -129 c-3 -5 -10 -10 -16 -10 -5 0 -9 5 -9 10 0 6 7 10 16
10 8 0 12 -4 9 -10z m175 -160 c0 -5 -4 -10 -10 -10 -5 0 -10 5 -10 10 0 6 5
10 10 10 6 0 10 -4 10 -10z m-130 -30 c0 -32 -26 -43 -36 -15 -9 21 3 45 21
45 10 0 15 -10 15 -30z m210 11 c0 -12 -23 -31 -37 -31 -16 0 -17 22 -2 37 11
11 39 7 39 -6z"/>
<path d="M14804 6830 c-25 -10 -94 -76 -119 -113 -19 -29 -13 -48 9 -32 51 38
70 48 103 56 43 9 76 3 70 -14 -2 -6 -18 -19 -37 -30 -18 -10 -53 -40 -78 -65
-43 -45 -44 -49 -38 -96 3 -27 10 -54 16 -60 13 -13 13 -73 0 -81 -6 -4 -8
-11 -5 -16 3 -5 17 -1 31 8 22 14 27 14 35 2 5 -8 9 -22 9 -31 0 -20 21 -33
70 -42 35 -6 111 -66 122 -96 8 -20 78 53 78 80 0 11 11 27 25 36 34 22 87 96
75 104 -5 3 -11 17 -12 30 -3 20 3 25 30 31 18 4 36 9 39 13 4 3 6 50 4 104
-2 89 -4 100 -30 136 -33 47 -67 58 -226 75 -127 13 -142 13 -171 1z m236
-240 c0 -5 -4 -10 -10 -10 -5 0 -10 5 -10 10 0 6 5 10 10 10 6 0 10 -4 10 -10z
m-130 -41 c0 -5 -9 -9 -20 -9 -19 0 -27 20 -13 33 7 8 33 -11 33 -24z m-2 -85
c24 -7 11 -23 -20 -23 -45 0 -82 -6 -96 -14 -6 -4 -16 1 -22 12 -11 22 0 34
23 25 9 -3 24 -1 34 5 16 9 42 7 81 -5z"/>
<path d="M14076 6622 c-3 -6 -1 -14 5 -17 15 -10 25 3 12 16 -7 7 -13 7 -17 1z"/>
<path d="M14005 6600 c-3 -6 3 -21 13 -35 l20 -25 6 25 c4 14 4 30 1 35 -8 13
-32 13 -40 0z"/>
<path d="M14120 6591 c0 -6 5 -13 10 -16 6 -3 10 1 10 9 0 9 -4 16 -10 16 -5
0 -10 -4 -10 -9z"/>
<path d="M13957 6413 c-10 -9 -9 -43 2 -43 13 0 23 32 13 42 -5 5 -11 5 -15 1z"/>
<path d="M16454 6311 c-14 -21 -34 -41 -45 -44 -10 -3 -19 -12 -19 -21 0 -22
13 -20 35 4 10 11 24 20 31 20 16 0 44 39 44 62 0 29 -18 21 -46 -21z"/>
<path d="M14500 6247 c0 -15 4 -35 9 -45 5 -9 12 -25 15 -34 3 -10 10 -18 16
-18 17 0 11 32 -15 80 -22 42 -24 43 -25 17z"/>
<path d="M15052 6169 c-28 -16 -56 -37 -61 -48 -6 -10 -10 -48 -9 -83 1 -51
-3 -70 -18 -86 -10 -11 -41 -43 -68 -71 -43 -46 -47 -53 -34 -69 7 -9 20 -29
27 -43 14 -29 71 -54 102 -44 22 7 66 -27 178 -137 32 -32 75 -65 95 -73 20
-9 36 -22 36 -31 0 -13 6 -15 28 -9 15 4 52 13 82 20 88 19 103 30 97 72 -4
20 -8 37 -10 39 -8 8 -42 8 -44 1 -2 -11 -35 -36 -47 -37 -4 0 -5 11 -2 25 6
25 5 25 -52 25 -46 0 -65 5 -92 25 -19 14 -41 25 -49 25 -25 0 -81 38 -81 55
0 9 9 15 23 15 12 0 28 4 36 9 9 6 24 5 38 -2 17 -8 27 -7 35 1 9 9 6 12 -14
12 -37 0 -42 13 -13 40 20 19 27 21 40 10 8 -7 15 -20 15 -29 0 -24 70 -44 90
-26 23 20 63 27 93 16 22 -9 27 -8 27 4 0 9 11 20 24 25 13 5 27 14 31 21 18
29 -51 33 -138 7 -28 -8 -41 -8 -49 0 -12 12 -158 7 -193 -8 -69 -28 -88 -32
-130 -26 -38 6 -45 11 -45 30 0 12 -6 28 -12 35 -11 11 -10 13 2 9 11 -4 16 1
18 18 2 27 36 79 69 106 15 13 23 33 26 70 3 29 9 69 12 89 4 20 3 39 -2 42
-5 3 -32 -7 -61 -24z m166 -550 c-2 -6 -8 -10 -13 -10 -5 0 -11 4 -13 10 -2 6
4 11 13 11 9 0 15 -5 13 -11z m107 -19 c10 -16 -8 -40 -29 -40 -30 0 -61 24
-54 42 6 15 73 14 83 -2z"/>
<path d="M15670 6173 c0 -23 8 -33 48 -64 30 -23 82 -121 82 -154 0 -6 23 -33
50 -60 38 -37 50 -57 50 -80 0 -65 33 -72 43 -9 8 46 -6 72 -78 149 -31 33
-65 77 -76 98 -11 20 -24 37 -29 37 -5 0 -13 12 -16 28 -12 51 -74 98 -74 55z"/>
<path d="M15200 6055 c-16 -19 -5 -35 24 -35 31 0 50 22 34 38 -16 16 -43 15
-58 -3z"/>
<path d="M13950 5821 c0 -6 5 -13 10 -16 6 -3 10 1 10 9 0 9 -4 16 -10 16 -5
0 -10 -4 -10 -9z"/>
<path d="M15656 5823 c-3 -4 -6 -13 -6 -22 0 -10 3 -12 8 -5 4 6 14 13 21 16
13 4 12 5 -1 10 -9 4 -19 4 -22 1z"/>
<path d="M15747 5809 c-10 -6 -25 -8 -33 -5 -8 3 -14 1 -14 -4 0 -6 5 -10 11
-10 6 0 9 -12 7 -27 -2 -20 -9 -29 -25 -31 -13 -2 -23 -7 -23 -12 0 -10 -44
-60 -53 -60 -3 0 -7 6 -10 13 -2 6 -2 -1 1 -18 2 -16 6 -31 7 -33 9 -9 97 47
145 92 30 29 64 57 74 63 12 7 17 17 13 27 -7 19 -71 22 -100 5z"/>
<path d="M14981 5687 c-13 -16 -5 -27 21 -27 11 0 18 7 18 20 0 23 -22 27 -39
7z"/>
<path d="M15500 5629 c0 -5 5 -7 10 -4 6 3 10 8 10 11 0 2 -4 4 -10 4 -5 0
-10 -5 -10 -11z"/>
<path d="M15378 5083 c7 -3 16 -2 19 1 4 3 -2 6 -13 5 -11 0 -14 -3 -6 -6z"/>
<path d="M14085 4660 l-30 -6 39 -13 c27 -9 62 -11 113 -7 74 7 74 7 103 -24
l29 -31 46 31 c45 31 56 49 33 52 -34 4 -307 2 -333 -2z"/>
<path d="M16190 4570 c0 -5 4 -10 9 -10 6 0 13 5 16 10 3 6 -1 10 -9 10 -9 0
-16 -4 -16 -10z"/>
<path d="M15987 4542 c-10 -10 -17 -24 -17 -30 0 -6 -11 -19 -25 -30 -33 -26
-33 -48 0 -26 22 15 25 15 31 1 8 -23 -4 -37 -32 -37 -20 0 -24 -5 -24 -30 0
-16 0 -33 -1 -37 0 -5 7 -9 15 -11 9 -2 16 2 16 10 0 7 18 33 40 58 46 51 48
60 20 78 -22 14 -27 48 -7 55 6 2 9 7 6 11 -3 3 -13 -2 -22 -12z"/>
<path d="M15860 4420 c0 -5 5 -10 11 -10 5 0 7 5 4 10 -3 6 -8 10 -11 10 -2 0
-4 -4 -4 -10z"/>
<path d="M15550 4040 c0 -5 5 -10 10 -10 6 0 10 5 10 10 0 6 -4 10 -10 10 -5
0 -10 -4 -10 -10z"/>
<path d="M12470 2710 c0 -11 3 -20 8 -21 4 0 27 -1 52 -3 25 -2 53 -6 63 -11
10 -4 17 -3 17 4 0 15 -48 37 -97 45 -39 6 -43 4 -43 -14z"/>
<path d="M12674 2661 c4 -6 26 -11 50 -11 23 0 47 -5 53 -11 6 -6 21 -9 34 -7
23 4 23 5 -6 18 -41 18 -140 26 -131 11z"/>
<path d="M12921 2590 c-10 -6 -6 -12 17 -24 17 -9 41 -16 52 -16 22 0 50 -21
50 -38 0 -5 8 -16 18 -25 16 -15 50 -76 70 -127 5 -14 17 -42 26 -63 9 -21 16
-46 16 -55 0 -10 5 -23 11 -29 12 -12 2 -103 -11 -103 -23 0 -44 17 -71 57
-21 29 -40 46 -60 50 -15 3 -42 21 -59 41 -16 19 -32 33 -35 30 -3 -3 4 -26
16 -53 26 -59 14 -78 -26 -41 -16 15 -31 24 -34 21 -8 -9 69 -76 80 -70 5 4 9
-3 9 -15 0 -14 5 -20 17 -18 11 2 22 -6 28 -20 6 -15 17 -22 30 -20 12 2 32
-10 51 -29 17 -18 36 -33 42 -33 6 0 17 -10 23 -22 7 -13 32 -42 55 -66 23
-23 49 -55 56 -70 8 -15 21 -37 29 -49 11 -19 11 -27 1 -43 -6 -11 -12 -27
-12 -35 0 -17 -18 -19 -39 -6 -9 6 -11 18 -8 33 9 33 -2 42 -25 21 -22 -20
-23 -46 -3 -63 9 -7 13 -21 10 -31 -5 -14 -1 -19 12 -20 39 -1 192 -18 258
-28 40 -6 89 -8 115 -3 l45 8 -45 24 c-65 36 -148 169 -275 440 -32 69 -67
137 -76 151 -10 15 -31 66 -47 115 -16 49 -37 104 -46 121 -9 18 -16 42 -16
55 0 19 -2 20 -10 8 -5 -8 -10 -28 -10 -43 l0 -28 -32 24 c-18 14 -55 35 -83
47 -27 12 -61 28 -75 35 -15 8 -31 10 -39 5z m449 -859 c0 -6 -4 -13 -10 -16
-5 -3 -10 1 -10 9 0 9 5 16 10 16 6 0 10 -4 10 -9z"/>
<path d="M12870 2392 c0 -5 7 -17 15 -28 14 -18 14 -18 15 9 0 17 -5 27 -15
27 -8 0 -15 -4 -15 -8z"/>
<path d="M12355 2340 c-17 -7 -15 -9 13 -9 17 -1 32 4 32 9 0 12 -17 12 -45 0z"/>
<path d="M12523 2338 c-5 -9 -8 -8 72 -14 69 -4 122 -18 183 -47 23 -11 45
-17 48 -14 4 4 -2 10 -12 14 -10 4 -26 15 -34 24 -28 31 -95 49 -176 46 -42
-1 -78 -5 -81 -9z"/>
<path d="M12203 2320 c-68 -16 -111 -70 -65 -82 29 -8 42 2 36 27 -5 20 -1 24
45 35 28 7 48 16 45 21 -6 10 -16 10 -61 -1z"/>
<path d="M12850 2235 c0 -9 9 -15 21 -15 18 0 19 2 9 15 -7 8 -16 15 -21 15
-5 0 -9 -7 -9 -15z"/>
<path d="M12160 2191 c-8 -6 -32 -11 -52 -11 -37 0 -38 -1 -38 -35 0 -24 6
-37 19 -45 29 -15 32 -13 25 16 -7 26 -6 26 37 20 85 -12 197 -7 229 9 61 31
34 44 -105 51 -61 3 -106 1 -115 -5z"/>
<path d="M12570 2147 c-14 -7 -26 -21 -28 -32 -2 -17 6 -22 49 -32 39 -10 56
-10 66 -2 10 9 18 8 31 -4 20 -19 132 -77 147 -77 6 0 15 -8 22 -19 8 -13 19
-17 36 -14 14 3 34 0 45 -6 15 -8 23 -8 28 0 8 13 -10 26 -46 36 -14 3 -38 16
-55 28 -16 12 -74 43 -127 69 -53 25 -100 51 -103 56 -8 14 -35 12 -65 -3z"/>
<path d="M12170 1987 c0 -32 8 -38 37 -24 19 8 29 8 45 -2 17 -11 23 -10 36 3
14 14 12 17 -21 31 -20 8 -50 15 -67 15 -25 0 -30 -4 -30 -23z"/>
<path d="M12435 1961 c-7 -13 27 -31 59 -31 15 0 35 -5 46 -12 32 -20 36 1 6
27 -30 26 -99 35 -111 16z"/>
<path d="M14470 1873 c12 -40 38 -89 55 -103 12 -10 15 -9 17 6 3 39 -3 59
-28 91 -32 42 -56 45 -44 6z"/>
<path d="M12880 1800 c0 -19 55 -73 87 -86 34 -15 85 -19 96 -7 4 3 -16 17
-43 30 -28 13 -50 27 -50 31 0 8 -69 42 -83 42 -4 0 -7 -5 -7 -10z"/>
<path d="M13057 1764 c-11 -11 3 -24 25 -24 17 0 18 2 8 15 -13 16 -23 19 -33
9z"/>
<path d="M12245 1725 c-49 -25 -130 -90 -133 -108 -5 -27 15 -20 55 19 21 20
55 47 76 61 20 14 37 30 37 34 0 11 1 11 -35 -6z"/>
<path d="M13140 1691 c0 -11 30 -19 48 -14 23 8 12 23 -18 23 -16 0 -30 -4
-30 -9z"/>
<path d="M16135 1599 c-4 -6 -5 -13 -2 -16 7 -7 27 6 27 18 0 12 -17 12 -25
-2z"/>
<path d="M13875 1562 c-44 -15 -68 -40 -102 -106 -39 -78 -63 -148 -63 -188 0
-30 14 -38 24 -13 3 9 18 15 40 15 19 0 42 7 50 16 9 8 20 13 25 10 5 -3 30 6
56 20 49 28 48 28 117 -7 12 -6 32 -1 65 15 27 14 80 30 118 36 39 7 78 16 89
22 12 6 22 6 29 -1 6 -6 48 -11 94 -11 53 0 83 -4 83 -11 0 -19 -58 -69 -79
-69 -12 0 -21 -5 -21 -11 0 -7 8 -9 23 -4 12 4 36 7 52 7 47 -2 93 8 107 22 7
7 33 19 58 27 39 12 45 18 53 52 5 20 13 37 18 37 5 0 9 6 9 14 0 8 14 19 30
25 54 18 30 74 -38 87 -30 6 -32 5 -32 -20 0 -15 5 -36 11 -48 10 -18 8 -19
-18 -14 -33 7 -97 12 -248 21 -60 4 -146 16 -191 26 -44 11 -119 21 -166 22
-47 1 -92 8 -99 14 -19 15 -69 23 -94 15z m765 -110 c0 -15 -11 -21 -27 -15
-12 5 -12 7 -1 14 17 11 28 11 28 1z"/>
<path d="M15956 1490 c-34 -39 -50 -74 -43 -94 8 -20 80 -22 94 -3 20 24 24
81 7 105 -20 29 -25 28 -58 -8z"/>
<path d="M15066 1421 c-4 -5 0 -11 6 -14 7 -2 -8 -10 -34 -17 -27 -7 -48 -17
-48 -22 0 -5 -9 -6 -20 -3 -24 7 -27 -10 -4 -19 25 -10 74 -7 74 4 0 6 10 10
23 10 13 0 28 5 34 11 14 14 123 3 123 -12 0 -5 7 -9 15 -9 26 0 17 37 -12 48
-88 33 -146 41 -157 23z"/>
<path d="M12436 1342 c-8 -14 2 -39 20 -46 18 -7 18 14 1 39 -9 11 -16 14 -21
7z"/>
<path d="M16485 1304 c22 -17 46 -15 53 4 2 8 -8 12 -35 12 -36 -1 -37 -1 -18
-16z"/>
<path d="M16552 1298 c5 -15 37 -18 41 -3 1 6 -9 12 -22 13 -16 3 -22 -1 -19
-10z"/>
<path d="M15435 1260 c-4 -6 7 -10 25 -10 18 0 29 4 25 10 -3 6 -15 10 -25 10
-10 0 -22 -4 -25 -10z"/>
<path d="M15520 1250 c0 -13 11 -13 30 0 12 8 11 10 -7 10 -13 0 -23 -4 -23
-10z"/>
<path d="M13690 1201 c0 -17 2 -31 4 -31 8 0 13 51 5 56 -5 3 -9 -9 -9 -25z"/>
<path d="M15800 1181 c0 -5 8 -11 18 -13 26 -6 63 3 56 13 -7 12 -74 12 -74 0z"/>
<path d="M13662 1137 c-7 -16 -12 -30 -12 -32 0 -3 -11 -28 -24 -57 -30 -67
-107 -284 -113 -320 -4 -19 -1 -28 8 -28 8 -1 37 -4 64 -7 28 -4 89 -6 137 -6
78 0 94 4 153 33 74 37 96 32 49 -9 -39 -35 -154 -71 -228 -71 -55 0 -111 -10
-242 -45 -22 -6 -52 -50 -41 -61 3 -4 24 -8 46 -9 22 -1 46 -7 53 -12 7 -5 37
-20 66 -32 44 -18 59 -20 90 -12 31 9 55 6 132 -14 52 -14 107 -34 122 -45 35
-26 64 -25 78 0 11 21 54 28 65 10 3 -5 14 -10 23 -10 9 0 46 -18 81 -41 35
-22 70 -38 77 -35 10 4 14 23 14 58 0 29 6 73 14 98 8 25 25 78 37 118 12 40
35 92 51 116 l28 44 117 1 c115 1 117 1 138 28 21 25 24 26 54 13 25 -10 38
-10 57 -1 22 9 24 14 14 26 -7 8 -17 15 -22 15 -21 0 -48 45 -42 71 5 24 -1
30 -50 58 -41 24 -72 33 -118 37 -35 2 -75 9 -90 15 -15 6 -47 8 -70 5 -24 -3
-88 -8 -143 -11 -153 -7 -208 -12 -236 -23 -14 -5 -32 -6 -40 -2 -7 5 -57 9
-109 9 -52 1 -105 1 -117 2 -17 1 -26 12 -37 48 -8 25 -17 60 -19 76 l-3 30
-12 -28z"/>
<path d="M16251 1141 c-11 -7 -10 -11 4 -19 12 -6 16 -17 13 -30 -8 -29 16
-49 38 -32 8 8 32 17 52 21 33 6 34 8 15 14 -13 4 -23 13 -23 20 0 7 -14 18
-31 24 -38 13 -50 13 -68 2z"/>
<path d="M16542 1121 c-8 -4 -12 -19 -10 -32 3 -21 9 -24 51 -25 54 -2 68 9
35 27 -12 7 -29 18 -36 26 -16 15 -22 16 -40 4z"/>
<path d="M16750 990 c0 -5 9 -10 21 -10 11 0 17 5 14 10 -3 6 -13 10 -21 10
-8 0 -14 -4 -14 -10z"/>
<path d="M16795 971 c-7 -13 83 -81 107 -81 25 0 19 22 -10 35 -12 5 -22 14
-22 19 0 25 -62 47 -75 27z"/>
<path d="M16498 943 c7 -3 16 -2 19 1 4 3 -2 6 -13 5 -11 0 -14 -3 -6 -6z"/>
<path d="M17060 916 c0 -16 26 -46 41 -46 5 0 3 14 -6 30 -16 32 -35 40 -35
16z"/>
<path d="M16084 879 c-3 -5 -2 -14 1 -19 7 -12 73 -42 130 -60 54 -17 147 -65
220 -114 62 -41 93 -65 199 -151 33 -28 82 -65 108 -83 25 -18 53 -39 62 -47
8 -9 22 -12 32 -8 14 5 16 2 11 -16 -4 -17 0 -24 19 -32 32 -11 34 -11 34 2 0
6 -24 39 -54 74 -30 36 -57 73 -61 84 -3 12 -32 33 -68 51 -35 17 -94 61 -137
101 -66 61 -172 129 -204 129 -6 0 -56 18 -111 41 -114 45 -173 61 -181 48z"/>
<path d="M12150 826 c0 -28 69 -136 87 -136 17 0 180 -46 288 -81 84 -27 91
-28 103 -12 24 33 15 43 -39 43 -33 0 -70 9 -107 26 -31 14 -75 33 -97 42 -51
20 -128 67 -182 109 -49 39 -53 40 -53 9z"/>
<path d="M14815 800 c27 -12 35 -12 35 0 0 6 -12 10 -27 9 -25 0 -26 -1 -8 -9z"/>
<path d="M12808 793 c-22 -6 -23 -29 -2 -37 14 -5 14 -9 3 -22 -11 -14 -10
-19 9 -34 12 -10 22 -26 22 -35 0 -14 3 -15 15 -5 8 7 23 9 32 6 14 -6 13 -3
-4 16 -19 20 -20 25 -8 42 15 19 35 14 35 -10 0 -18 5 -18 35 2 13 9 29 13 35
9 6 -4 10 4 10 20 0 31 -28 46 -42 22 -13 -24 -32 -21 -59 8 -23 24 -43 28
-81 18z"/>
<path d="M15940 643 c0 -5 6 -15 12 -21 10 -10 10 -17 0 -32 -6 -11 -12 -24
-12 -28 0 -18 64 -83 110 -111 26 -16 59 -41 73 -55 14 -14 31 -26 37 -26 6 0
-17 33 -52 73 -81 92 -97 127 -74 162 9 14 13 26 9 26 -35 6 -52 9 -75 15 -16
3 -28 2 -28 -3z"/>
<path d="M16150 572 c0 -14 109 -64 131 -60 35 5 25 22 -18 30 -23 3 -55 14
-72 22 -34 18 -41 19 -41 8z"/>
<path d="M13333 493 c-16 -6 -17 -62 -2 -100 l11 -28 14 28 c8 15 19 27 24 27
17 0 11 28 -12 54 -13 13 -29 22 -35 19z"/>
<path d="M16900 445 c0 -3 9 -23 20 -44 18 -37 45 -51 96 -51 27 0 14 30 -18
43 -18 8 -42 24 -52 36 -17 19 -46 29 -46 16z"/>
<path d="M16440 407 c0 -14 31 -47 43 -47 4 0 34 -20 68 -45 34 -25 69 -45 80
-45 10 0 21 -4 24 -10 3 -5 17 -10 30 -10 13 0 27 -4 30 -10 3 -5 13 -10 21
-10 8 0 14 5 14 10 0 6 -8 10 -17 10 -10 0 -51 27 -92 60 -41 33 -78 60 -83
60 -5 0 -22 10 -37 21 -16 12 -34 19 -39 15 -6 -3 -13 -2 -17 4 -9 14 -25 12
-25 -3z"/>
<path d="M15903 342 c-13 -8 47 -73 100 -107 33 -21 51 -10 22 13 -11 10 -27
35 -36 57 -12 33 -20 40 -44 43 -17 1 -35 -1 -42 -6z"/>
<path d="M16764 337 c-8 -22 42 -86 72 -92 13 -3 35 -7 49 -10 31 -7 33 12 3
24 -13 5 -35 19 -49 32 -69 64 -68 63 -75 46z"/>
<path d="M16072 194 c10 -10 20 -15 24 -12 3 4 -5 12 -18 18 -22 12 -22 12 -6
-6z"/>
<path d="M16340 114 c-14 -7 -34 -16 -44 -19 -18 -5 -18 -7 3 -29 13 -13 39
-27 59 -31 21 -3 47 -9 60 -12 17 -4 22 -1 22 16 0 11 -9 26 -20 33 -11 7 -20
18 -20 25 0 22 -33 31 -60 17z"/>
</g>
</svg>
